<svg width="56" height="56" viewBox="0 0 56 56" fill="none" xmlns="http://www.w3.org/2000/svg">
<path d="M35.84 44.7999C45.1184 44.7999 52.64 37.2783 52.64 28C52.64 18.7216 45.1184 11.2 35.84 11.2C26.5617 11.2 19.04 18.7216 19.04 28C19.04 37.2783 26.5617 44.7999 35.84 44.7999Z" fill="url(#paint0_linear_1443_3481)"/>
<path d="M20.1601 11.2C29.4385 11.2 36.9601 18.7216 36.9601 27.9999C36.9601 37.2783 29.4385 44.7999 20.1601 44.7999H4.60035C3.91311 44.7999 3.36015 44.247 3.36014 43.5597C3.36007 40.3436 3.36014 31.7269 3.36014 27.9999C3.36014 18.7216 10.8817 11.2 20.1601 11.2ZM14.5601 20.9999C13.0137 20.9999 11.7601 22.2535 11.7601 23.7999C11.7603 25.3462 13.0138 26.5999 14.5601 26.5999C16.1065 26.5999 17.36 25.3462 17.3601 23.7999C17.3601 22.2535 16.1065 20.9999 14.5601 20.9999ZM25.7595 20.9999C24.2131 20.9999 22.9595 22.2535 22.9595 23.7999C22.9596 25.3462 24.2132 26.5999 25.7595 26.5999C27.3057 26.5998 28.5594 25.3462 28.5595 23.7999C28.5595 22.2536 27.3058 21.0001 25.7595 20.9999Z" fill="url(#paint1_linear_1443_3481)"/>
<defs>
<linearGradient id="paint0_linear_1443_3481" x1="35.84" y1="11.2" x2="35.84" y2="44.7999" gradientUnits="userSpaceOnUse">
<stop stop-color="#352F29"/>
<stop offset="1" stop-color="#16120C"/>
</linearGradient>
<linearGradient id="paint1_linear_1443_3481" x1="27.3157" y1="11.2" x2="4.60458" y2="45.7333" gradientUnits="userSpaceOnUse">
<stop stop-color="#FFC182"/>
<stop offset="1" stop-color="#FF9D3C"/>
</linearGradient>
</defs>
</svg>
